<svg xmlns="http://www.w3.org/2000/svg" width="840" height="560" viewBox="0 0 840 560">
  <defs>
    <linearGradient id="bg" x1="0" y1="0" x2="1" y2="1">
      <stop offset="0%" stop-color="#0d1626"/>
      <stop offset="100%" stop-color="#0d1f39"/>
    </linearGradient>
  </defs>
  <rect width="840" height="560" rx="32" fill="url(#bg)"/>
  <rect x="120" y="130" width="600" height="300" rx="30" fill="#0f203c" stroke="#00ffe7" stroke-opacity="0.2" stroke-width="4"/>
  <rect x="160" y="180" width="520" height="60" rx="18" fill="#12264a"/>
  <rect x="160" y="260" width="520" height="140" rx="18" fill="#0c1932"/>
  <rect x="200" y="200" width="160" height="24" rx="12" fill="#00ffe7" opacity="0.2"/>
  <rect x="200" y="240" width="260" height="22" rx="11" fill="#00ffe7" opacity="0.16"/>
  <rect x="200" y="280" width="420" height="20" rx="10" fill="#00ffe7" opacity="0.12"/>
  <rect x="200" y="312" width="260" height="20" rx="10" fill="#00ffe7" opacity="0.12"/>
  <rect x="200" y="344" width="180" height="20" rx="10" fill="#00ffe7" opacity="0.12"/>
  <circle cx="620" cy="364" r="40" fill="#00ffe7" opacity="0.16"/>
  <path d="M600 344 h80 v40 h-80 z" fill="#0d1626" stroke="#00ffe7" stroke-width="4"/>
  <path d="M620 360 h40" stroke="#00ffe7" stroke-width="6" stroke-linecap="round"/>
  <path d="M640 346 v36" stroke="#00ffe7" stroke-width="6" stroke-linecap="round"/>
  <text x="420" y="110" text-anchor="middle" fill="#00ffe7" font-family="Inter, sans-serif" font-size="30" font-weight="700">Indexación digital</text>
</svg>
